<svg width="1639" height="265" viewBox="0 0 1639 265" fill="none" xmlns="http://www.w3.org/2000/svg">
<path d="M551.781 60.1165C551.584 58.3684 550.772 57.0142 549.344 56.054C547.916 55.0814 546.118 54.5952 543.952 54.5952C542.401 54.5952 541.059 54.8414 539.926 55.3338C538.794 55.8139 537.913 56.4787 537.286 57.3281C536.67 58.1652 536.362 59.1193 536.362 60.1903C536.362 61.089 536.571 61.8646 536.99 62.517C537.421 63.1695 537.981 63.7173 538.67 64.1605C539.372 64.5914 540.123 64.9545 540.923 65.25C541.723 65.5331 542.493 65.767 543.232 65.9517L546.925 66.9119C548.131 67.2074 549.368 67.6075 550.636 68.1122C551.904 68.6169 553.08 69.2817 554.163 70.1065C555.247 70.9313 556.121 71.9531 556.786 73.1719C557.463 74.3906 557.801 75.8494 557.801 77.5483C557.801 79.6903 557.247 81.5923 556.139 83.2543C555.044 84.9162 553.449 86.2273 551.357 87.1875C549.276 88.1477 546.759 88.6278 543.804 88.6278C540.973 88.6278 538.523 88.1785 536.455 87.2798C534.386 86.3812 532.768 85.107 531.598 83.4574C530.429 81.7955 529.782 79.8258 529.659 77.5483H535.384C535.494 78.9148 535.938 80.0535 536.713 80.9645C537.501 81.8632 538.504 82.5341 539.723 82.9773C540.954 83.4081 542.302 83.6236 543.767 83.6236C545.38 83.6236 546.814 83.3712 548.07 82.8665C549.338 82.3494 550.335 81.6354 551.061 80.7244C551.787 79.8011 552.151 78.724 552.151 77.4929C552.151 76.3726 551.83 75.4555 551.19 74.7415C550.563 74.0275 549.707 73.4366 548.624 72.9688C547.553 72.5009 546.34 72.0885 544.986 71.7315L540.517 70.5128C537.489 69.688 535.088 68.4754 533.315 66.875C531.555 65.2746 530.675 63.1572 530.675 60.5227C530.675 58.3437 531.266 56.4418 532.447 54.8168C533.629 53.1918 535.23 51.9299 537.249 51.0312C539.268 50.1203 541.545 49.6648 544.081 49.6648C546.642 49.6648 548.901 50.1141 550.858 51.0128C552.828 51.9115 554.379 53.1487 555.511 54.7244C556.644 56.2879 557.235 58.0852 557.284 60.1165H551.781ZM564.176 88V59.6364H569.698V88H564.176ZM566.965 55.2599C566.005 55.2599 565.18 54.9399 564.49 54.2997C563.813 53.6473 563.475 52.8717 563.475 51.973C563.475 51.062 563.813 50.2865 564.49 49.6463C565.18 48.9938 566.005 48.6676 566.965 48.6676C567.925 48.6676 568.744 48.9938 569.421 49.6463C570.11 50.2865 570.455 51.062 570.455 51.973C570.455 52.8717 570.11 53.6473 569.421 54.2997C568.744 54.9399 567.925 55.2599 566.965 55.2599ZM598.38 66.5611L593.376 67.4474C593.166 66.8073 592.834 66.1979 592.379 65.6193C591.935 65.0407 591.332 64.5668 590.569 64.1974C589.806 63.8281 588.852 63.6435 587.707 63.6435C586.143 63.6435 584.838 63.9943 583.792 64.696C582.746 65.3854 582.222 66.2779 582.222 67.3736C582.222 68.3215 582.573 69.0848 583.275 69.6634C583.977 70.242 585.109 70.7159 586.673 71.0852L591.178 72.1193C593.788 72.7225 595.733 73.652 597.013 74.9077C598.294 76.1634 598.934 77.7945 598.934 79.8011C598.934 81.5 598.442 83.0142 597.457 84.3438C596.484 85.661 595.124 86.6951 593.376 87.446C591.64 88.197 589.627 88.5724 587.337 88.5724C584.161 88.5724 581.57 87.8954 579.563 86.5412C577.557 85.1747 576.326 83.2358 575.87 80.7244L581.207 79.9119C581.539 81.303 582.222 82.3556 583.256 83.0696C584.29 83.7713 585.638 84.1222 587.3 84.1222C589.11 84.1222 590.557 83.7467 591.64 82.9957C592.723 82.2325 593.265 81.303 593.265 80.2074C593.265 79.321 592.933 78.5762 592.268 77.973C591.615 77.3698 590.612 76.9143 589.258 76.6065L584.457 75.554C581.81 74.9508 579.853 73.9905 578.585 72.6733C577.329 71.3561 576.701 69.688 576.701 67.669C576.701 65.9948 577.169 64.5298 578.104 63.2741C579.04 62.0185 580.333 61.0398 581.982 60.3381C583.632 59.6241 585.522 59.267 587.651 59.267C590.717 59.267 593.129 59.9318 594.89 61.2614C596.65 62.5786 597.814 64.3452 598.38 66.5611ZM618.245 59.6364V64.0682H602.752V59.6364H618.245ZM606.907 52.8409H612.428V79.6719C612.428 80.7429 612.588 81.5492 612.908 82.0909C613.228 82.6203 613.641 82.9834 614.145 83.1804C614.662 83.3651 615.222 83.4574 615.826 83.4574C616.269 83.4574 616.657 83.4266 616.989 83.3651C617.321 83.3035 617.58 83.2543 617.765 83.2173L618.762 87.7784C618.442 87.9015 617.986 88.0246 617.395 88.1477C616.804 88.2831 616.066 88.357 615.179 88.3693C613.727 88.3939 612.373 88.1354 611.117 87.5938C609.861 87.0521 608.846 86.215 608.07 85.0824C607.294 83.9498 606.907 82.5279 606.907 80.8168V52.8409ZM636.272 88.5724C633.478 88.5724 631.071 87.9754 629.052 86.7812C627.045 85.5748 625.494 83.8821 624.398 81.7031C623.315 79.5118 622.773 76.9451 622.773 74.0028C622.773 71.0975 623.315 68.5369 624.398 66.321C625.494 64.1051 627.021 62.3755 628.978 61.1321C630.948 59.8887 633.25 59.267 635.884 59.267C637.485 59.267 639.036 59.5317 640.538 60.0611C642.04 60.5904 643.388 61.4214 644.582 62.554C645.776 63.6866 646.718 65.1577 647.407 66.9673C648.096 68.7647 648.441 70.9498 648.441 73.5227V75.4801H625.894V71.3438H643.031C643.031 69.8911 642.735 68.6046 642.144 67.4844C641.553 66.3518 640.722 65.4593 639.651 64.8068C638.593 64.1544 637.349 63.8281 635.921 63.8281C634.37 63.8281 633.016 64.2098 631.859 64.973C630.714 65.724 629.827 66.7088 629.2 67.9276C628.584 69.134 628.276 70.4451 628.276 71.8608V75.0923C628.276 76.9882 628.609 78.6009 629.273 79.9304C629.951 81.2599 630.892 82.2756 632.099 82.9773C633.305 83.6667 634.715 84.0114 636.327 84.0114C637.374 84.0114 638.328 83.8636 639.19 83.5682C640.051 83.2604 640.796 82.8049 641.424 82.2017C642.052 81.5985 642.532 80.8537 642.864 79.9673L648.09 80.9091C647.672 82.4479 646.921 83.7959 645.837 84.9531C644.766 86.098 643.418 86.9905 641.793 87.6307C640.181 88.2585 638.34 88.5724 636.272 88.5724ZM654.567 88V59.6364H659.867V64.2528H660.218C660.809 62.6894 661.775 61.4706 663.117 60.5966C664.459 59.7102 666.065 59.267 667.936 59.267C669.832 59.267 671.42 59.7102 672.701 60.5966C673.993 61.483 674.947 62.7017 675.563 64.2528H675.858C676.535 62.7386 677.613 61.5322 679.09 60.6335C680.567 59.7225 682.328 59.267 684.371 59.267C686.944 59.267 689.043 60.0734 690.668 61.6861C692.305 63.2988 693.124 65.7301 693.124 68.9801V88H687.603V69.4972C687.603 67.5767 687.079 66.1856 686.033 65.3239C684.987 64.4621 683.737 64.0312 682.284 64.0312C680.487 64.0312 679.09 64.5852 678.093 65.6932C677.096 66.7888 676.597 68.1984 676.597 69.9219V88H671.094V69.1463C671.094 67.6075 670.614 66.3703 669.654 65.4347C668.694 64.4991 667.444 64.0312 665.905 64.0312C664.859 64.0312 663.892 64.3082 663.006 64.8622C662.132 65.4039 661.424 66.161 660.882 67.1335C660.353 68.1061 660.088 69.2325 660.088 70.5128V88H654.567ZM708.778 88.6278C706.981 88.6278 705.356 88.2955 703.903 87.6307C702.451 86.9536 701.3 85.9749 700.45 84.6946C699.613 83.4143 699.195 81.8447 699.195 79.9858C699.195 78.3854 699.502 77.0682 700.118 76.0341C700.733 75 701.564 74.1813 702.611 73.5781C703.657 72.9749 704.827 72.5194 706.119 72.2116C707.412 71.9039 708.729 71.67 710.071 71.5099C711.77 71.313 713.149 71.1529 714.207 71.0298C715.266 70.8944 716.036 70.679 716.516 70.3835C716.996 70.0881 717.236 69.608 717.236 68.9432V68.8139C717.236 67.2012 716.78 65.9517 715.869 65.0653C714.971 64.179 713.629 63.7358 711.844 63.7358C709.985 63.7358 708.52 64.1482 707.449 64.973C706.39 65.7855 705.658 66.6903 705.251 67.6875L700.062 66.5057C700.678 64.7822 701.577 63.3911 702.759 62.3324C703.953 61.2614 705.325 60.4858 706.876 60.0057C708.428 59.5133 710.059 59.267 711.77 59.267C712.902 59.267 714.103 59.4025 715.371 59.6733C716.651 59.9318 717.845 60.4119 718.953 61.1136C720.073 61.8153 720.991 62.8187 721.705 64.1236C722.419 65.4162 722.776 67.0966 722.776 69.1648V88H717.384V84.1222H717.162C716.805 84.8362 716.269 85.5379 715.555 86.2273C714.841 86.9167 713.924 87.4891 712.804 87.9446C711.684 88.4001 710.342 88.6278 708.778 88.6278ZM709.979 84.196C711.505 84.196 712.81 83.8944 713.893 83.2912C714.989 82.688 715.82 81.9001 716.386 80.9276C716.965 79.9427 717.254 78.8902 717.254 77.7699V74.1136C717.057 74.3106 716.676 74.4953 716.109 74.6676C715.555 74.8277 714.921 74.9692 714.207 75.0923C713.493 75.2031 712.798 75.3078 712.121 75.4062C711.444 75.4924 710.877 75.5663 710.422 75.6278C709.351 75.7633 708.372 75.991 707.486 76.3111C706.612 76.6312 705.91 77.0928 705.381 77.696C704.864 78.2869 704.605 79.0748 704.605 80.0597C704.605 81.4261 705.11 82.4602 706.119 83.1619C707.129 83.8513 708.415 84.196 709.979 84.196ZM754.509 88.554C752.219 88.554 750.176 87.9692 748.379 86.7997C746.594 85.6179 745.19 83.9375 744.168 81.7585C743.159 79.5672 742.654 76.9389 742.654 73.8736C742.654 70.8082 743.165 68.1861 744.187 66.0071C745.221 63.8281 746.637 62.16 748.434 61.0028C750.231 59.8456 752.269 59.267 754.546 59.267C756.307 59.267 757.722 59.5625 758.793 60.1534C759.877 60.732 760.714 61.4091 761.305 62.1847C761.908 62.9602 762.376 63.6435 762.708 64.2344H763.04V50.1818H768.562V88H763.17V83.5866H762.708C762.376 84.1899 761.896 84.8793 761.268 85.6548C760.652 86.4304 759.803 87.1075 758.719 87.6861C757.636 88.2647 756.233 88.554 754.509 88.554ZM755.728 83.8452C757.316 83.8452 758.658 83.4266 759.754 82.5895C760.862 81.7401 761.699 80.5644 762.265 79.0625C762.844 77.5606 763.133 75.8125 763.133 73.8182C763.133 71.8485 762.85 70.125 762.283 68.6477C761.717 67.1705 760.886 66.0194 759.79 65.1946C758.695 64.3698 757.341 63.9574 755.728 63.9574C754.066 63.9574 752.681 64.3883 751.573 65.25C750.465 66.1117 749.628 67.2874 749.062 68.777C748.508 70.2666 748.231 71.947 748.231 73.8182C748.231 75.714 748.514 77.419 749.08 78.9332C749.647 80.4474 750.484 81.6477 751.592 82.5341C752.712 83.4081 754.091 83.8452 755.728 83.8452ZM788.667 88.5724C785.872 88.5724 783.465 87.9754 781.446 86.7812C779.44 85.5748 777.889 83.8821 776.793 81.7031C775.71 79.5118 775.168 76.9451 775.168 74.0028C775.168 71.0975 775.71 68.5369 776.793 66.321C777.889 64.1051 779.415 62.3755 781.373 61.1321C783.342 59.8887 785.644 59.267 788.279 59.267C789.879 59.267 791.43 59.5317 792.932 60.0611C794.434 60.5904 795.782 61.4214 796.976 62.554C798.17 63.6866 799.112 65.1577 799.801 66.9673C800.491 68.7647 800.836 70.9498 800.836 73.5227V75.4801H778.289V71.3438H795.425C795.425 69.8911 795.13 68.6046 794.539 67.4844C793.948 66.3518 793.117 65.4593 792.046 64.8068C790.987 64.1544 789.744 63.8281 788.316 63.8281C786.765 63.8281 785.41 64.2098 784.253 64.973C783.108 65.724 782.222 66.7088 781.594 67.9276C780.979 69.134 780.671 70.4451 780.671 71.8608V75.0923C780.671 76.9882 781.003 78.6009 781.668 79.9304C782.345 81.2599 783.287 82.2756 784.493 82.9773C785.7 83.6667 787.109 84.0114 788.722 84.0114C789.768 84.0114 790.722 83.8636 791.584 83.5682C792.446 83.2604 793.191 82.8049 793.819 82.2017C794.446 81.5985 794.926 80.8537 795.259 79.9673L800.485 80.9091C800.066 82.4479 799.315 83.7959 798.232 84.9531C797.161 86.098 795.813 86.9905 794.188 87.6307C792.575 88.2585 790.735 88.5724 788.667 88.5724ZM556.749 125.129C556.392 124.009 555.911 123.006 555.308 122.119C554.717 121.221 554.009 120.457 553.185 119.83C552.36 119.189 551.418 118.703 550.359 118.371C549.313 118.038 548.162 117.872 546.906 117.872C544.777 117.872 542.856 118.42 541.145 119.516C539.434 120.611 538.08 122.218 537.082 124.335C536.098 126.44 535.605 129.019 535.605 132.072C535.605 135.138 536.104 137.729 537.101 139.847C538.098 141.964 539.464 143.571 541.2 144.666C542.936 145.762 544.912 146.31 547.128 146.31C549.184 146.31 550.975 145.891 552.501 145.054C554.04 144.217 555.228 143.035 556.065 141.509C556.915 139.97 557.339 138.16 557.339 136.08L558.817 136.357H547.996V131.648H562.861V135.95C562.861 139.126 562.184 141.884 560.83 144.223C559.488 146.55 557.629 148.347 555.253 149.615C552.889 150.883 550.181 151.517 547.128 151.517C543.705 151.517 540.702 150.729 538.116 149.153C535.544 147.578 533.537 145.343 532.097 142.45C530.656 139.545 529.936 136.098 529.936 132.109C529.936 129.093 530.355 126.385 531.192 123.984C532.029 121.584 533.205 119.546 534.719 117.872C536.245 116.186 538.036 114.899 540.092 114.013C542.161 113.114 544.42 112.665 546.869 112.665C548.913 112.665 550.815 112.966 552.575 113.57C554.348 114.173 555.924 115.028 557.303 116.136C558.694 117.244 559.845 118.562 560.756 120.088C561.667 121.602 562.282 123.283 562.602 125.129H556.749ZM581.885 151.572C579.091 151.572 576.684 150.975 574.665 149.781C572.658 148.575 571.107 146.882 570.012 144.703C568.928 142.512 568.387 139.945 568.387 137.003C568.387 134.098 568.928 131.537 570.012 129.321C571.107 127.105 572.634 125.375 574.591 124.132C576.561 122.889 578.863 122.267 581.498 122.267C583.098 122.267 584.649 122.532 586.151 123.061C587.653 123.59 589.001 124.421 590.195 125.554C591.389 126.687 592.331 128.158 593.02 129.967C593.71 131.765 594.054 133.95 594.054 136.523V138.48H571.507V134.344H588.644C588.644 132.891 588.348 131.605 587.757 130.484C587.167 129.352 586.336 128.459 585.265 127.807C584.206 127.154 582.962 126.828 581.534 126.828C579.983 126.828 578.629 127.21 577.472 127.973C576.327 128.724 575.441 129.709 574.813 130.928C574.197 132.134 573.89 133.445 573.89 134.861V138.092C573.89 139.988 574.222 141.601 574.887 142.93C575.564 144.26 576.506 145.276 577.712 145.977C578.918 146.667 580.328 147.011 581.941 147.011C582.987 147.011 583.941 146.864 584.803 146.568C585.665 146.26 586.409 145.805 587.037 145.202C587.665 144.598 588.145 143.854 588.478 142.967L593.703 143.909C593.285 145.448 592.534 146.796 591.451 147.953C590.38 149.098 589.032 149.991 587.407 150.631C585.794 151.259 583.953 151.572 581.885 151.572ZM621.435 129.561L616.43 130.447C616.221 129.807 615.889 129.198 615.433 128.619C614.99 128.041 614.387 127.567 613.624 127.197C612.86 126.828 611.906 126.643 610.761 126.643C609.198 126.643 607.893 126.994 606.847 127.696C605.8 128.385 605.277 129.278 605.277 130.374C605.277 131.321 605.628 132.085 606.33 132.663C607.031 133.242 608.164 133.716 609.727 134.085L614.233 135.119C616.843 135.723 618.788 136.652 620.068 137.908C621.348 139.163 621.989 140.795 621.989 142.801C621.989 144.5 621.496 146.014 620.511 147.344C619.539 148.661 618.179 149.695 616.43 150.446C614.695 151.197 612.682 151.572 610.392 151.572C607.216 151.572 604.625 150.895 602.618 149.541C600.611 148.175 599.38 146.236 598.925 143.724L604.261 142.912C604.594 144.303 605.277 145.356 606.311 146.07C607.345 146.771 608.693 147.122 610.355 147.122C612.165 147.122 613.611 146.747 614.695 145.996C615.778 145.232 616.32 144.303 616.32 143.207C616.32 142.321 615.987 141.576 615.322 140.973C614.67 140.37 613.667 139.914 612.312 139.607L607.511 138.554C604.865 137.951 602.907 136.991 601.639 135.673C600.384 134.356 599.756 132.688 599.756 130.669C599.756 128.995 600.223 127.53 601.159 126.274C602.095 125.018 603.387 124.04 605.037 123.338C606.687 122.624 608.576 122.267 610.706 122.267C613.771 122.267 616.184 122.932 617.945 124.261C619.705 125.579 620.868 127.345 621.435 129.561ZM641.299 122.636V127.068H625.806V122.636H641.299ZM629.961 115.841H635.483V142.672C635.483 143.743 635.643 144.549 635.963 145.091C636.283 145.62 636.695 145.983 637.2 146.18C637.717 146.365 638.277 146.457 638.88 146.457C639.324 146.457 639.711 146.427 640.044 146.365C640.376 146.304 640.635 146.254 640.819 146.217L641.816 150.778C641.496 150.902 641.041 151.025 640.45 151.148C639.859 151.283 639.12 151.357 638.234 151.369C636.781 151.394 635.427 151.135 634.172 150.594C632.916 150.052 631.9 149.215 631.125 148.082C630.349 146.95 629.961 145.528 629.961 143.817V115.841ZM655.661 151.628C653.864 151.628 652.239 151.295 650.786 150.631C649.334 149.954 648.183 148.975 647.333 147.695C646.496 146.414 646.077 144.845 646.077 142.986C646.077 141.385 646.385 140.068 647.001 139.034C647.616 138 648.447 137.181 649.494 136.578C650.54 135.975 651.71 135.519 653.002 135.212C654.295 134.904 655.612 134.67 656.954 134.51C658.653 134.313 660.031 134.153 661.09 134.03C662.149 133.894 662.918 133.679 663.398 133.384C663.879 133.088 664.119 132.608 664.119 131.943V131.814C664.119 130.201 663.663 128.952 662.752 128.065C661.853 127.179 660.512 126.736 658.727 126.736C656.868 126.736 655.403 127.148 654.332 127.973C653.273 128.786 652.54 129.69 652.134 130.688L646.945 129.506C647.561 127.782 648.46 126.391 649.641 125.332C650.835 124.261 652.208 123.486 653.759 123.006C655.31 122.513 656.942 122.267 658.653 122.267C659.785 122.267 660.986 122.402 662.254 122.673C663.534 122.932 664.728 123.412 665.836 124.114C666.956 124.815 667.873 125.819 668.587 127.124C669.301 128.416 669.658 130.097 669.658 132.165V151H664.266V147.122H664.045C663.688 147.836 663.152 148.538 662.438 149.227C661.724 149.917 660.807 150.489 659.687 150.945C658.567 151.4 657.225 151.628 655.661 151.628ZM656.862 147.196C658.388 147.196 659.693 146.894 660.776 146.291C661.872 145.688 662.703 144.9 663.269 143.928C663.848 142.943 664.137 141.89 664.137 140.77V137.114C663.94 137.311 663.558 137.495 662.992 137.668C662.438 137.828 661.804 137.969 661.09 138.092C660.376 138.203 659.681 138.308 659.004 138.406C658.326 138.492 657.76 138.566 657.305 138.628C656.234 138.763 655.255 138.991 654.369 139.311C653.495 139.631 652.793 140.093 652.263 140.696C651.746 141.287 651.488 142.075 651.488 143.06C651.488 144.426 651.993 145.46 653.002 146.162C654.012 146.851 655.298 147.196 656.862 147.196ZM653.39 119.202L649.678 119.091C649.678 117.047 650.226 115.416 651.322 114.197C652.43 112.979 653.796 112.369 655.421 112.369C656.172 112.369 656.831 112.499 657.397 112.757C657.963 113.003 658.493 113.293 658.985 113.625C659.49 113.945 659.988 114.234 660.481 114.493C660.986 114.739 661.546 114.862 662.161 114.862C662.875 114.862 663.454 114.591 663.897 114.05C664.353 113.508 664.58 112.837 664.58 112.037L668.218 112.277C668.218 114.333 667.664 115.952 666.556 117.134C665.448 118.303 664.088 118.894 662.475 118.906C661.601 118.906 660.875 118.783 660.296 118.537C659.73 118.278 659.225 117.989 658.782 117.669C658.339 117.337 657.883 117.041 657.415 116.783C656.948 116.524 656.388 116.395 655.735 116.395C655.046 116.395 654.479 116.666 654.036 117.207C653.605 117.737 653.39 118.402 653.39 119.202ZM688.96 151.572C686.301 151.572 683.98 150.963 681.998 149.744C680.016 148.526 678.477 146.821 677.382 144.629C676.286 142.438 675.738 139.877 675.738 136.947C675.738 134.005 676.286 131.432 677.382 129.229C678.477 127.025 680.016 125.314 681.998 124.095C683.98 122.876 686.301 122.267 688.96 122.267C691.619 122.267 693.94 122.876 695.922 124.095C697.904 125.314 699.442 127.025 700.538 129.229C701.634 131.432 702.181 134.005 702.181 136.947C702.181 139.877 701.634 142.438 700.538 144.629C699.442 146.821 697.904 148.526 695.922 149.744C693.94 150.963 691.619 151.572 688.96 151.572ZM688.978 146.938C690.702 146.938 692.13 146.482 693.262 145.571C694.395 144.66 695.232 143.447 695.774 141.933C696.328 140.419 696.605 138.751 696.605 136.929C696.605 135.119 696.328 133.457 695.774 131.943C695.232 130.417 694.395 129.192 693.262 128.268C692.13 127.345 690.702 126.884 688.978 126.884C687.243 126.884 685.802 127.345 684.657 128.268C683.525 129.192 682.681 130.417 682.127 131.943C681.586 133.457 681.315 135.119 681.315 136.929C681.315 138.751 681.586 140.419 682.127 141.933C682.681 143.447 683.525 144.66 684.657 145.571C685.802 146.482 687.243 146.938 688.978 146.938ZM732.724 151.554C730.434 151.554 728.391 150.969 726.593 149.8C724.808 148.618 723.405 146.937 722.383 144.759C721.374 142.567 720.869 139.939 720.869 136.874C720.869 133.808 721.38 131.186 722.402 129.007C723.436 126.828 724.851 125.16 726.649 124.003C728.446 122.846 730.484 122.267 732.761 122.267C734.521 122.267 735.937 122.562 737.008 123.153C738.092 123.732 738.929 124.409 739.52 125.185C740.123 125.96 740.591 126.643 740.923 127.234H741.255V113.182H746.777V151H741.385V146.587H740.923C740.591 147.19 740.11 147.879 739.483 148.655C738.867 149.43 738.018 150.107 736.934 150.686C735.851 151.265 734.448 151.554 732.724 151.554ZM733.943 146.845C735.531 146.845 736.873 146.427 737.968 145.589C739.076 144.74 739.913 143.564 740.48 142.062C741.058 140.561 741.348 138.812 741.348 136.818C741.348 134.848 741.065 133.125 740.498 131.648C739.932 130.17 739.101 129.019 738.005 128.195C736.91 127.37 735.556 126.957 733.943 126.957C732.281 126.957 730.896 127.388 729.788 128.25C728.68 129.112 727.843 130.287 727.277 131.777C726.723 133.267 726.446 134.947 726.446 136.818C726.446 138.714 726.729 140.419 727.295 141.933C727.861 143.447 728.699 144.648 729.806 145.534C730.927 146.408 732.306 146.845 733.943 146.845ZM766.881 151.572C764.087 151.572 761.68 150.975 759.661 149.781C757.655 148.575 756.103 146.882 755.008 144.703C753.924 142.512 753.383 139.945 753.383 137.003C753.383 134.098 753.924 131.537 755.008 129.321C756.103 127.105 757.63 125.375 759.587 124.132C761.557 122.889 763.859 122.267 766.494 122.267C768.094 122.267 769.645 122.532 771.147 123.061C772.649 123.59 773.997 124.421 775.191 125.554C776.385 126.687 777.327 128.158 778.016 129.967C778.706 131.765 779.05 133.95 779.05 136.523V138.48H756.504V134.344H773.64C773.64 132.891 773.344 131.605 772.754 130.484C772.163 129.352 771.332 128.459 770.261 127.807C769.202 127.154 767.959 126.828 766.531 126.828C764.979 126.828 763.625 127.21 762.468 127.973C761.323 128.724 760.437 129.709 759.809 130.928C759.193 132.134 758.886 133.445 758.886 134.861V138.092C758.886 139.988 759.218 141.601 759.883 142.93C760.56 144.26 761.502 145.276 762.708 145.977C763.915 146.667 765.324 147.011 766.937 147.011C767.983 147.011 768.937 146.864 769.799 146.568C770.661 146.26 771.406 145.805 772.033 145.202C772.661 144.598 773.141 143.854 773.474 142.967L778.7 143.909C778.281 145.448 777.53 146.796 776.447 147.953C775.376 149.098 774.028 149.991 772.403 150.631C770.79 151.259 768.95 151.572 766.881 151.572ZM551.781 186.116C551.584 184.368 550.772 183.014 549.344 182.054C547.916 181.081 546.118 180.595 543.952 180.595C542.401 180.595 541.059 180.841 539.926 181.334C538.794 181.814 537.913 182.479 537.286 183.328C536.67 184.165 536.362 185.119 536.362 186.19C536.362 187.089 536.571 187.865 536.99 188.517C537.421 189.17 537.981 189.717 538.67 190.161C539.372 190.591 540.123 190.955 540.923 191.25C541.723 191.533 542.493 191.767 543.232 191.952L546.925 192.912C548.131 193.207 549.368 193.607 550.636 194.112C551.904 194.617 553.08 195.282 554.163 196.107C555.247 196.931 556.121 197.953 556.786 199.172C557.463 200.391 557.801 201.849 557.801 203.548C557.801 205.69 557.247 207.592 556.139 209.254C555.044 210.916 553.449 212.227 551.357 213.188C549.276 214.148 546.759 214.628 543.804 214.628C540.973 214.628 538.523 214.179 536.455 213.28C534.386 212.381 532.768 211.107 531.598 209.457C530.429 207.795 529.782 205.826 529.659 203.548H535.384C535.494 204.915 535.938 206.054 536.713 206.964C537.501 207.863 538.504 208.534 539.723 208.977C540.954 209.408 542.302 209.624 543.767 209.624C545.38 209.624 546.814 209.371 548.07 208.866C549.338 208.349 550.335 207.635 551.061 206.724C551.787 205.801 552.151 204.724 552.151 203.493C552.151 202.373 551.83 201.455 551.19 200.741C550.563 200.027 549.707 199.437 548.624 198.969C547.553 198.501 546.34 198.089 544.986 197.732L540.517 196.513C537.489 195.688 535.088 194.475 533.315 192.875C531.555 191.275 530.675 189.157 530.675 186.523C530.675 184.344 531.266 182.442 532.447 180.817C533.629 179.192 535.23 177.93 537.249 177.031C539.268 176.12 541.545 175.665 544.081 175.665C546.642 175.665 548.901 176.114 550.858 177.013C552.828 177.911 554.379 179.149 555.511 180.724C556.644 182.288 557.235 184.085 557.284 186.116H551.781ZM576.401 214.572C573.606 214.572 571.2 213.975 569.181 212.781C567.174 211.575 565.623 209.882 564.527 207.703C563.444 205.512 562.902 202.945 562.902 200.003C562.902 197.098 563.444 194.537 564.527 192.321C565.623 190.105 567.15 188.375 569.107 187.132C571.077 185.889 573.379 185.267 576.013 185.267C577.614 185.267 579.165 185.532 580.667 186.061C582.168 186.59 583.516 187.421 584.711 188.554C585.905 189.687 586.846 191.158 587.536 192.967C588.225 194.765 588.57 196.95 588.57 199.523V201.48H566.023V197.344H583.159C583.159 195.891 582.864 194.605 582.273 193.484C581.682 192.352 580.851 191.459 579.78 190.807C578.721 190.154 577.478 189.828 576.05 189.828C574.499 189.828 573.145 190.21 571.988 190.973C570.843 191.724 569.956 192.709 569.328 193.928C568.713 195.134 568.405 196.445 568.405 197.861V201.092C568.405 202.988 568.738 204.601 569.402 205.93C570.079 207.26 571.021 208.276 572.228 208.977C573.434 209.667 574.844 210.011 576.456 210.011C577.503 210.011 578.457 209.864 579.319 209.568C580.18 209.26 580.925 208.805 581.553 208.202C582.181 207.598 582.661 206.854 582.993 205.967L588.219 206.909C587.801 208.448 587.05 209.796 585.966 210.953C584.895 212.098 583.547 212.991 581.922 213.631C580.31 214.259 578.469 214.572 576.401 214.572ZM594.696 214V185.636H600.033V190.142H600.328C600.845 188.616 601.756 187.415 603.061 186.541C604.378 185.655 605.868 185.212 607.53 185.212C607.875 185.212 608.281 185.224 608.749 185.249C609.229 185.273 609.604 185.304 609.875 185.341V190.622C609.653 190.561 609.259 190.493 608.693 190.419C608.127 190.333 607.561 190.29 606.994 190.29C605.689 190.29 604.526 190.567 603.504 191.121C602.495 191.662 601.695 192.42 601.104 193.392C600.513 194.352 600.217 195.448 600.217 196.679V214H594.696ZM639.781 185.636L629.495 214H623.586L613.282 185.636H619.21L626.393 207.463H626.688L633.853 185.636H639.781ZM644.969 214V185.636H650.491V214H644.969ZM647.758 181.26C646.798 181.26 645.973 180.94 645.283 180.3C644.606 179.647 644.268 178.872 644.268 177.973C644.268 177.062 644.606 176.286 645.283 175.646C645.973 174.994 646.798 174.668 647.758 174.668C648.718 174.668 649.537 174.994 650.214 175.646C650.903 176.286 651.248 177.062 651.248 177.973C651.248 178.872 650.903 179.647 650.214 180.3C649.537 180.94 648.718 181.26 647.758 181.26ZM669.866 214.572C667.121 214.572 664.757 213.951 662.775 212.707C660.806 211.452 659.291 209.722 658.233 207.518C657.174 205.315 656.645 202.791 656.645 199.947C656.645 197.067 657.186 194.525 658.27 192.321C659.353 190.105 660.879 188.375 662.849 187.132C664.819 185.889 667.139 185.267 669.811 185.267C671.965 185.267 673.886 185.667 675.572 186.467C677.259 187.255 678.619 188.363 679.653 189.791C680.699 191.219 681.321 192.887 681.518 194.795H676.145C675.849 193.466 675.172 192.321 674.113 191.361C673.067 190.401 671.663 189.92 669.903 189.92C668.364 189.92 667.016 190.327 665.859 191.139C664.714 191.939 663.822 193.084 663.181 194.574C662.541 196.051 662.221 197.799 662.221 199.818C662.221 201.886 662.535 203.671 663.163 205.173C663.791 206.675 664.677 207.839 665.822 208.663C666.979 209.488 668.34 209.901 669.903 209.901C670.949 209.901 671.897 209.71 672.747 209.328C673.609 208.934 674.329 208.374 674.907 207.648C675.498 206.921 675.911 206.047 676.145 205.026H681.518C681.321 206.86 680.724 208.497 679.727 209.938C678.73 211.378 677.394 212.51 675.72 213.335C674.058 214.16 672.107 214.572 669.866 214.572ZM667.872 213.852H671.491L671.196 215.366C672.267 215.539 673.202 215.97 674.002 216.659C674.803 217.348 675.203 218.389 675.203 219.78C675.215 221.442 674.495 222.79 673.042 223.824C671.602 224.858 669.515 225.375 666.782 225.375L666.672 222.291C667.952 222.291 668.986 222.107 669.774 221.737C670.574 221.368 670.98 220.771 670.993 219.946C671.005 219.121 670.697 218.543 670.069 218.21C669.454 217.878 668.469 217.644 667.115 217.509L667.872 213.852ZM699.37 214.572C696.711 214.572 694.39 213.963 692.408 212.744C690.426 211.526 688.888 209.821 687.792 207.629C686.696 205.438 686.148 202.877 686.148 199.947C686.148 197.005 686.696 194.432 687.792 192.229C688.888 190.025 690.426 188.314 692.408 187.095C694.39 185.876 696.711 185.267 699.37 185.267C702.029 185.267 704.35 185.876 706.332 187.095C708.314 188.314 709.853 190.025 710.948 192.229C712.044 194.432 712.592 197.005 712.592 199.947C712.592 202.877 712.044 205.438 710.948 207.629C709.853 209.821 708.314 211.526 706.332 212.744C704.35 213.963 702.029 214.572 699.37 214.572ZM699.388 209.938C701.112 209.938 702.54 209.482 703.673 208.571C704.805 207.66 705.642 206.447 706.184 204.933C706.738 203.419 707.015 201.751 707.015 199.929C707.015 198.119 706.738 196.457 706.184 194.943C705.642 193.417 704.805 192.192 703.673 191.268C702.54 190.345 701.112 189.884 699.388 189.884C697.653 189.884 696.212 190.345 695.067 191.268C693.935 192.192 693.092 193.417 692.538 194.943C691.996 196.457 691.725 198.119 691.725 199.929C691.725 201.751 691.996 203.419 692.538 204.933C693.092 206.447 693.935 207.66 695.067 208.571C696.212 209.482 697.653 209.938 699.388 209.938ZM740.009 192.561L735.005 193.447C734.795 192.807 734.463 192.198 734.007 191.619C733.564 191.041 732.961 190.567 732.198 190.197C731.435 189.828 730.48 189.643 729.336 189.643C727.772 189.643 726.467 189.994 725.421 190.696C724.374 191.385 723.851 192.278 723.851 193.374C723.851 194.321 724.202 195.085 724.904 195.663C725.605 196.242 726.738 196.716 728.301 197.085L732.807 198.119C735.417 198.723 737.362 199.652 738.642 200.908C739.923 202.163 740.563 203.795 740.563 205.801C740.563 207.5 740.07 209.014 739.086 210.344C738.113 211.661 736.753 212.695 735.005 213.446C733.269 214.197 731.256 214.572 728.966 214.572C725.79 214.572 723.199 213.895 721.192 212.541C719.185 211.175 717.954 209.236 717.499 206.724L722.836 205.912C723.168 207.303 723.851 208.356 724.885 209.07C725.919 209.771 727.267 210.122 728.929 210.122C730.739 210.122 732.185 209.747 733.269 208.996C734.352 208.232 734.894 207.303 734.894 206.207C734.894 205.321 734.561 204.576 733.897 203.973C733.244 203.37 732.241 202.914 730.887 202.607L726.086 201.554C723.439 200.951 721.481 199.991 720.213 198.673C718.958 197.356 718.33 195.688 718.33 193.669C718.33 191.995 718.798 190.53 719.733 189.274C720.669 188.018 721.962 187.04 723.611 186.338C725.261 185.624 727.15 185.267 729.28 185.267C732.346 185.267 734.758 185.932 736.519 187.261C738.279 188.579 739.443 190.345 740.009 192.561Z" fill="#969696"/>
<path d="M1320.15 88V50.1818H1333.63C1336.58 50.1818 1339.01 50.7173 1340.95 51.7884C1342.88 52.8594 1344.33 54.3243 1345.29 56.1832C1346.25 58.0298 1346.73 60.1103 1346.73 62.4247C1346.73 64.7514 1346.24 66.8442 1345.27 68.7031C1344.31 70.5497 1342.86 72.0147 1340.91 73.098C1338.98 74.169 1336.55 74.7045 1333.62 74.7045H1324.35V69.8665H1333.1C1334.96 69.8665 1336.47 69.5464 1337.62 68.9062C1338.78 68.2538 1339.63 67.3674 1340.17 66.2472C1340.71 65.1269 1340.98 63.8527 1340.98 62.4247C1340.98 60.9967 1340.71 59.7287 1340.17 58.6207C1339.63 57.5128 1338.77 56.6449 1337.61 56.017C1336.45 55.3892 1334.92 55.0753 1333.03 55.0753H1325.86V88H1320.15ZM1352.97 88V59.6364H1358.31V64.142H1358.61C1359.12 62.6155 1360.03 61.4152 1361.34 60.5412C1362.66 59.6548 1364.15 59.2116 1365.81 59.2116C1366.15 59.2116 1366.56 59.224 1367.03 59.2486C1367.51 59.2732 1367.88 59.304 1368.15 59.3409V64.6222C1367.93 64.5606 1367.54 64.4929 1366.97 64.419C1366.4 64.3329 1365.84 64.2898 1365.27 64.2898C1363.97 64.2898 1362.8 64.5668 1361.78 65.1207C1360.77 65.6624 1359.97 66.4195 1359.38 67.392C1358.79 68.3523 1358.49 69.4479 1358.49 70.679V88H1352.97ZM1383.86 88.5724C1381.2 88.5724 1378.88 87.9631 1376.9 86.7443C1374.92 85.5256 1373.38 83.8205 1372.28 81.6293C1371.19 79.438 1370.64 76.8774 1370.64 73.9474C1370.64 71.0052 1371.19 68.4323 1372.28 66.2287C1373.38 64.0251 1374.92 62.3139 1376.9 61.0952C1378.88 59.8764 1381.2 59.267 1383.86 59.267C1386.52 59.267 1388.84 59.8764 1390.82 61.0952C1392.81 62.3139 1394.34 64.0251 1395.44 66.2287C1396.54 68.4323 1397.08 71.0052 1397.08 73.9474C1397.08 76.8774 1396.54 79.438 1395.44 81.6293C1394.34 83.8205 1392.81 85.5256 1390.82 86.7443C1388.84 87.9631 1386.52 88.5724 1383.86 88.5724ZM1383.88 83.9375C1385.6 83.9375 1387.03 83.482 1388.16 82.571C1389.3 81.66 1390.13 80.4474 1390.68 78.9332C1391.23 77.419 1391.51 75.7509 1391.51 73.929C1391.51 72.1193 1391.23 70.4574 1390.68 68.9432C1390.13 67.4167 1389.3 66.1918 1388.16 65.2685C1387.03 64.3452 1385.6 63.8835 1383.88 63.8835C1382.14 63.8835 1380.7 64.3452 1379.56 65.2685C1378.43 66.1918 1377.58 67.4167 1377.03 68.9432C1376.49 70.4574 1376.22 72.1193 1376.22 73.929C1376.22 75.7509 1376.49 77.419 1377.03 78.9332C1377.58 80.4474 1378.43 81.66 1379.56 82.571C1380.7 83.482 1382.14 83.9375 1383.88 83.9375ZM1403.25 59.6364H1408.77V89.8466C1408.77 91.7424 1408.42 93.3428 1407.73 94.6477C1407.06 95.9527 1406.05 96.9437 1404.71 97.6207C1403.38 98.2978 1401.73 98.6364 1399.78 98.6364C1399.58 98.6364 1399.39 98.6364 1399.22 98.6364C1399.04 98.6364 1398.85 98.6302 1398.65 98.6179V93.8722C1398.82 93.8722 1398.98 93.8722 1399.11 93.8722C1399.23 93.8722 1399.38 93.8722 1399.54 93.8722C1400.84 93.8722 1401.78 93.5213 1402.36 92.8196C1402.95 92.1302 1403.25 91.1269 1403.25 89.8097V59.6364ZM1405.98 55.2599C1405.02 55.2599 1404.19 54.9399 1403.51 54.2997C1402.83 53.6473 1402.49 52.8717 1402.49 51.973C1402.49 51.062 1402.83 50.2865 1403.51 49.6463C1404.19 48.9938 1405.02 48.6676 1405.98 48.6676C1406.94 48.6676 1407.76 48.9938 1408.44 49.6463C1409.13 50.2865 1409.47 51.062 1409.47 51.973C1409.47 52.8717 1409.13 53.6473 1408.44 54.2997C1407.76 54.9399 1406.94 55.2599 1405.98 55.2599ZM1428.42 88.5724C1425.63 88.5724 1423.22 87.9754 1421.2 86.7812C1419.19 85.5748 1417.64 83.8821 1416.55 81.7031C1415.46 79.5118 1414.92 76.9451 1414.92 74.0028C1414.92 71.0975 1415.46 68.5369 1416.55 66.321C1417.64 64.1051 1419.17 62.3755 1421.13 61.1321C1423.1 59.8887 1425.4 59.267 1428.03 59.267C1429.63 59.267 1431.18 59.5317 1432.69 60.0611C1434.19 60.5904 1435.54 61.4214 1436.73 62.554C1437.92 63.6866 1438.87 65.1577 1439.56 66.9673C1440.24 68.7647 1440.59 70.9498 1440.59 73.5227V75.4801H1418.04V71.3438H1435.18C1435.18 69.8911 1434.88 68.6046 1434.29 67.4844C1433.7 66.3518 1432.87 65.4593 1431.8 64.8068C1430.74 64.1544 1429.5 63.8281 1428.07 63.8281C1426.52 63.8281 1425.16 64.2098 1424.01 64.973C1422.86 65.724 1421.98 66.7088 1421.35 67.9276C1420.73 69.134 1420.42 70.4451 1420.42 71.8608V75.0923C1420.42 76.9882 1420.76 78.6009 1421.42 79.9304C1422.1 81.2599 1423.04 82.2756 1424.25 82.9773C1425.45 83.6667 1426.86 84.0114 1428.48 84.0114C1429.52 84.0114 1430.48 83.8636 1431.34 83.5682C1432.2 83.2604 1432.94 82.8049 1433.57 82.2017C1434.2 81.5985 1434.68 80.8537 1435.01 79.9673L1440.24 80.9091C1439.82 82.4479 1439.07 83.7959 1437.99 84.9531C1436.91 86.098 1435.57 86.9905 1433.94 87.6307C1432.33 88.2585 1430.49 88.5724 1428.42 88.5724ZM1459.96 59.6364V64.0682H1444.46V59.6364H1459.96ZM1448.62 52.8409H1454.14V79.6719C1454.14 80.7429 1454.3 81.5492 1454.62 82.0909C1454.94 82.6203 1455.35 82.9834 1455.86 83.1804C1456.37 83.3651 1456.93 83.4574 1457.54 83.4574C1457.98 83.4574 1458.37 83.4266 1458.7 83.3651C1459.03 83.3035 1459.29 83.2543 1459.48 83.2173L1460.47 87.7784C1460.15 87.9015 1459.7 88.0246 1459.11 88.1477C1458.52 88.2831 1457.78 88.357 1456.89 88.3693C1455.44 88.3939 1454.08 88.1354 1452.83 87.5938C1451.57 87.0521 1450.56 86.215 1449.78 85.0824C1449.01 83.9498 1448.62 82.5279 1448.62 80.8168V52.8409ZM1477.71 88.5724C1475.05 88.5724 1472.73 87.9631 1470.74 86.7443C1468.76 85.5256 1467.22 83.8205 1466.13 81.6293C1465.03 79.438 1464.48 76.8774 1464.48 73.9474C1464.48 71.0052 1465.03 68.4323 1466.13 66.2287C1467.22 64.0251 1468.76 62.3139 1470.74 61.0952C1472.73 59.8764 1475.05 59.267 1477.71 59.267C1480.37 59.267 1482.69 59.8764 1484.67 61.0952C1486.65 62.3139 1488.19 64.0251 1489.28 66.2287C1490.38 68.4323 1490.93 71.0052 1490.93 73.9474C1490.93 76.8774 1490.38 79.438 1489.28 81.6293C1488.19 83.8205 1486.65 85.5256 1484.67 86.7443C1482.69 87.9631 1480.37 88.5724 1477.71 88.5724ZM1477.72 83.9375C1479.45 83.9375 1480.88 83.482 1482.01 82.571C1483.14 81.66 1483.98 80.4474 1484.52 78.9332C1485.07 77.419 1485.35 75.7509 1485.35 73.929C1485.35 72.1193 1485.07 70.4574 1484.52 68.9432C1483.98 67.4167 1483.14 66.1918 1482.01 65.2685C1480.88 64.3452 1479.45 63.8835 1477.72 63.8835C1475.99 63.8835 1474.55 64.3452 1473.4 65.2685C1472.27 66.1918 1471.43 67.4167 1470.87 68.9432C1470.33 70.4574 1470.06 72.1193 1470.06 73.929C1470.06 75.7509 1470.33 77.419 1470.87 78.9332C1471.43 80.4474 1472.27 81.66 1473.4 82.571C1474.55 83.482 1475.99 83.9375 1477.72 83.9375ZM1320.15 151V113.182H1333.63C1336.58 113.182 1339.01 113.717 1340.95 114.788C1342.88 115.859 1344.33 117.324 1345.29 119.183C1346.25 121.03 1346.73 123.11 1346.73 125.425C1346.73 127.751 1346.24 129.844 1345.27 131.703C1344.31 133.55 1342.86 135.015 1340.91 136.098C1338.98 137.169 1336.55 137.705 1333.62 137.705H1324.35V132.866H1333.1C1334.96 132.866 1336.47 132.546 1337.62 131.906C1338.78 131.254 1339.63 130.367 1340.17 129.247C1340.71 128.127 1340.98 126.853 1340.98 125.425C1340.98 123.997 1340.71 122.729 1340.17 121.621C1339.63 120.513 1338.77 119.645 1337.61 119.017C1336.45 118.389 1334.92 118.075 1333.03 118.075H1325.86V151H1320.15ZM1352.97 151V122.636H1358.31V127.142H1358.61C1359.12 125.616 1360.03 124.415 1361.34 123.541C1362.66 122.655 1364.15 122.212 1365.81 122.212C1366.15 122.212 1366.56 122.224 1367.03 122.249C1367.51 122.273 1367.88 122.304 1368.15 122.341V127.622C1367.93 127.561 1367.54 127.493 1366.97 127.419C1366.4 127.333 1365.84 127.29 1365.27 127.29C1363.97 127.29 1362.8 127.567 1361.78 128.121C1360.77 128.662 1359.97 129.42 1359.38 130.392C1358.79 131.352 1358.49 132.448 1358.49 133.679V151H1352.97ZM1372.93 151V122.636H1378.45V151H1372.93ZM1375.72 118.26C1374.76 118.26 1373.93 117.94 1373.24 117.3C1372.57 116.647 1372.23 115.872 1372.23 114.973C1372.23 114.062 1372.57 113.286 1373.24 112.646C1373.93 111.994 1374.76 111.668 1375.72 111.668C1376.68 111.668 1377.5 111.994 1378.17 112.646C1378.86 113.286 1379.21 114.062 1379.21 114.973C1379.21 115.872 1378.86 116.647 1378.17 117.3C1377.5 117.94 1376.68 118.26 1375.72 118.26ZM1385.88 151V122.636H1391.18V127.253H1391.53C1392.12 125.689 1393.09 124.471 1394.43 123.597C1395.77 122.71 1397.38 122.267 1399.25 122.267C1401.14 122.267 1402.73 122.71 1404.01 123.597C1405.31 124.483 1406.26 125.702 1406.88 127.253H1407.17C1407.85 125.739 1408.93 124.532 1410.4 123.634C1411.88 122.723 1413.64 122.267 1415.68 122.267C1418.26 122.267 1420.36 123.073 1421.98 124.686C1423.62 126.299 1424.44 128.73 1424.44 131.98V151H1418.92V132.497C1418.92 130.577 1418.39 129.186 1417.35 128.324C1416.3 127.462 1415.05 127.031 1413.6 127.031C1411.8 127.031 1410.4 127.585 1409.41 128.693C1408.41 129.789 1407.91 131.198 1407.91 132.922V151H1402.41V132.146C1402.41 130.607 1401.93 129.37 1400.97 128.435C1400.01 127.499 1398.76 127.031 1397.22 127.031C1396.17 127.031 1395.2 127.308 1394.32 127.862C1393.44 128.404 1392.74 129.161 1392.19 130.134C1391.67 131.106 1391.4 132.232 1391.4 133.513V151H1385.88ZM1444.06 151.572C1441.27 151.572 1438.86 150.975 1436.84 149.781C1434.83 148.575 1433.28 146.882 1432.19 144.703C1431.1 142.512 1430.56 139.945 1430.56 137.003C1430.56 134.098 1431.1 131.537 1432.19 129.321C1433.28 127.105 1434.81 125.375 1436.77 124.132C1438.74 122.889 1441.04 122.267 1443.67 122.267C1445.27 122.267 1446.82 122.532 1448.33 123.061C1449.83 123.59 1451.18 124.421 1452.37 125.554C1453.56 126.687 1454.51 128.158 1455.2 129.967C1455.89 131.765 1456.23 133.95 1456.23 136.523V138.48H1433.68V134.344H1450.82C1450.82 132.891 1450.52 131.605 1449.93 130.484C1449.34 129.352 1448.51 128.459 1447.44 127.807C1446.38 127.154 1445.14 126.828 1443.71 126.828C1442.16 126.828 1440.8 127.21 1439.65 127.973C1438.5 128.724 1437.62 129.709 1436.99 130.928C1436.37 132.134 1436.07 133.445 1436.07 134.861V138.092C1436.07 139.988 1436.4 141.601 1437.06 142.93C1437.74 144.26 1438.68 145.276 1439.89 145.977C1441.09 146.667 1442.5 147.011 1444.12 147.011C1445.16 147.011 1446.12 146.864 1446.98 146.568C1447.84 146.26 1448.59 145.805 1449.21 145.202C1449.84 144.598 1450.32 143.854 1450.65 142.967L1455.88 143.909C1455.46 145.448 1454.71 146.796 1453.63 147.953C1452.56 149.098 1451.21 149.991 1449.58 150.631C1447.97 151.259 1446.13 151.572 1444.06 151.572ZM1462.36 151V122.636H1467.88V151H1462.36ZM1465.14 118.26C1464.18 118.26 1463.36 117.94 1462.67 117.3C1461.99 116.647 1461.65 115.872 1461.65 114.973C1461.65 114.062 1461.99 113.286 1462.67 112.646C1463.36 111.994 1464.18 111.668 1465.14 111.668C1466.1 111.668 1466.92 111.994 1467.6 112.646C1468.29 113.286 1468.63 114.062 1468.63 114.973C1468.63 115.872 1468.29 116.647 1467.6 117.3C1466.92 117.94 1466.1 118.26 1465.14 118.26ZM1475.31 151V122.636H1480.64V127.142H1480.94C1481.45 125.616 1482.37 124.415 1483.67 123.541C1484.99 122.655 1486.48 122.212 1488.14 122.212C1488.48 122.212 1488.89 122.224 1489.36 122.249C1489.84 122.273 1490.21 122.304 1490.48 122.341V127.622C1490.26 127.561 1489.87 127.493 1489.3 127.419C1488.74 127.333 1488.17 127.29 1487.6 127.29C1486.3 127.29 1485.14 127.567 1484.11 128.121C1483.1 128.662 1482.3 129.42 1481.71 130.392C1481.12 131.352 1480.83 132.448 1480.83 133.679V151H1475.31ZM1506.19 151.572C1503.54 151.572 1501.21 150.963 1499.23 149.744C1497.25 148.526 1495.71 146.821 1494.62 144.629C1493.52 142.438 1492.97 139.877 1492.97 136.947C1492.97 134.005 1493.52 131.432 1494.62 129.229C1495.71 127.025 1497.25 125.314 1499.23 124.095C1501.21 122.876 1503.54 122.267 1506.19 122.267C1508.85 122.267 1511.17 122.876 1513.16 124.095C1515.14 125.314 1516.68 127.025 1517.77 129.229C1518.87 131.432 1519.42 134.005 1519.42 136.947C1519.42 139.877 1518.87 142.438 1517.77 144.629C1516.68 146.821 1515.14 148.526 1513.16 149.744C1511.17 150.963 1508.85 151.572 1506.19 151.572ZM1506.21 146.938C1507.94 146.938 1509.36 146.482 1510.5 145.571C1511.63 144.66 1512.47 143.447 1513.01 141.933C1513.56 140.419 1513.84 138.751 1513.84 136.929C1513.84 135.119 1513.56 133.457 1513.01 131.943C1512.47 130.417 1511.63 129.192 1510.5 128.268C1509.36 127.345 1507.94 126.884 1506.21 126.884C1504.48 126.884 1503.04 127.345 1501.89 128.268C1500.76 129.192 1499.92 130.417 1499.36 131.943C1498.82 133.457 1498.55 135.119 1498.55 136.929C1498.55 138.751 1498.82 140.419 1499.36 141.933C1499.92 143.447 1500.76 144.66 1501.89 145.571C1503.04 146.482 1504.48 146.938 1506.21 146.938ZM1320.15 214V176.182H1343.87V181.094H1325.86V192.616H1342.63V197.51H1325.86V209.088H1344.09V214H1320.15ZM1351.04 214V185.636H1356.34V190.253H1356.69C1357.29 188.689 1358.25 187.471 1359.59 186.597C1360.94 185.71 1362.54 185.267 1364.41 185.267C1366.31 185.267 1367.9 185.71 1369.18 186.597C1370.47 187.483 1371.42 188.702 1372.04 190.253H1372.33C1373.01 188.739 1374.09 187.532 1375.57 186.634C1377.04 185.723 1378.8 185.267 1380.85 185.267C1383.42 185.267 1385.52 186.073 1387.14 187.686C1388.78 189.299 1389.6 191.73 1389.6 194.98V214H1384.08V195.497C1384.08 193.577 1383.56 192.186 1382.51 191.324C1381.46 190.462 1380.21 190.031 1378.76 190.031C1376.96 190.031 1375.57 190.585 1374.57 191.693C1373.57 192.789 1373.07 194.198 1373.07 195.922V214H1367.57V195.146C1367.57 193.607 1367.09 192.37 1366.13 191.435C1365.17 190.499 1363.92 190.031 1362.38 190.031C1361.34 190.031 1360.37 190.308 1359.48 190.862C1358.61 191.404 1357.9 192.161 1357.36 193.134C1356.83 194.106 1356.56 195.232 1356.56 196.513V214H1351.04ZM1397 224.636V185.636H1402.39V190.234H1402.85C1403.17 189.643 1403.64 188.96 1404.24 188.185C1404.84 187.409 1405.68 186.732 1406.75 186.153C1407.82 185.562 1409.24 185.267 1411 185.267C1413.29 185.267 1415.33 185.846 1417.13 187.003C1418.93 188.16 1420.34 189.828 1421.36 192.007C1422.39 194.186 1422.91 196.808 1422.91 199.874C1422.91 202.939 1422.4 205.567 1421.38 207.759C1420.35 209.937 1418.95 211.618 1417.17 212.8C1415.38 213.969 1413.34 214.554 1411.05 214.554C1409.33 214.554 1407.92 214.265 1406.82 213.686C1405.74 213.107 1404.89 212.43 1404.28 211.655C1403.66 210.879 1403.19 210.19 1402.85 209.587H1402.52V224.636H1397ZM1402.41 199.818C1402.41 201.812 1402.7 203.561 1403.28 205.062C1403.86 206.564 1404.69 207.74 1405.79 208.589C1406.89 209.427 1408.23 209.845 1409.82 209.845C1411.47 209.845 1412.84 209.408 1413.95 208.534C1415.06 207.648 1415.9 206.447 1416.46 204.933C1417.04 203.419 1417.33 201.714 1417.33 199.818C1417.33 197.947 1417.05 196.267 1416.48 194.777C1415.93 193.287 1415.09 192.112 1413.97 191.25C1412.86 190.388 1411.48 189.957 1409.82 189.957C1408.22 189.957 1406.86 190.37 1405.75 191.195C1404.66 192.019 1403.83 193.17 1403.26 194.648C1402.69 196.125 1402.41 197.848 1402.41 199.818ZM1429.09 214V185.636H1434.43V190.142H1434.73C1435.24 188.616 1436.15 187.415 1437.46 186.541C1438.78 185.655 1440.27 185.212 1441.93 185.212C1442.27 185.212 1442.68 185.224 1443.15 185.249C1443.63 185.273 1444 185.304 1444.27 185.341V190.622C1444.05 190.561 1443.66 190.493 1443.09 190.419C1442.53 190.333 1441.96 190.29 1441.39 190.29C1440.09 190.29 1438.92 190.567 1437.9 191.121C1436.89 191.662 1436.09 192.42 1435.5 193.392C1434.91 194.352 1434.62 195.448 1434.62 196.679V214H1429.09ZM1460.26 214.572C1457.47 214.572 1455.06 213.975 1453.04 212.781C1451.03 211.575 1449.48 209.882 1448.39 207.703C1447.3 205.512 1446.76 202.945 1446.76 200.003C1446.76 197.098 1447.3 194.537 1448.39 192.321C1449.48 190.105 1451.01 188.375 1452.97 187.132C1454.94 185.889 1457.24 185.267 1459.87 185.267C1461.47 185.267 1463.02 185.532 1464.53 186.061C1466.03 186.59 1467.38 187.421 1468.57 188.554C1469.76 189.687 1470.71 191.158 1471.4 192.967C1472.08 194.765 1472.43 196.95 1472.43 199.523V201.48H1449.88V197.344H1467.02C1467.02 195.891 1466.72 194.605 1466.13 193.484C1465.54 192.352 1464.71 191.459 1463.64 190.807C1462.58 190.154 1461.34 189.828 1459.91 189.828C1458.36 189.828 1457 190.21 1455.85 190.973C1454.7 191.724 1453.82 192.709 1453.19 193.928C1452.57 195.134 1452.26 196.445 1452.26 197.861V201.092C1452.26 202.988 1452.6 204.601 1453.26 205.93C1453.94 207.26 1454.88 208.276 1456.09 208.977C1457.29 209.667 1458.7 210.011 1460.32 210.011C1461.36 210.011 1462.32 209.864 1463.18 209.568C1464.04 209.26 1464.78 208.805 1465.41 208.202C1466.04 207.598 1466.52 206.854 1466.85 205.967L1472.08 206.909C1471.66 208.448 1470.91 209.796 1469.83 210.953C1468.75 212.098 1467.41 212.991 1465.78 213.631C1464.17 214.259 1462.33 214.572 1460.26 214.572ZM1490.45 225.227C1488.19 225.227 1486.26 224.932 1484.63 224.341C1483.02 223.75 1481.7 222.968 1480.68 221.996C1479.66 221.023 1478.89 219.958 1478.39 218.801L1483.13 216.844C1483.47 217.385 1483.91 217.958 1484.46 218.561C1485.03 219.177 1485.79 219.7 1486.75 220.131C1487.73 220.562 1488.98 220.777 1490.5 220.777C1492.6 220.777 1494.33 220.266 1495.69 219.244C1497.06 218.235 1497.74 216.622 1497.74 214.406V208.83H1497.39C1497.06 209.433 1496.58 210.104 1495.95 210.842C1495.33 211.581 1494.49 212.221 1493.4 212.763C1492.32 213.304 1490.91 213.575 1489.17 213.575C1486.93 213.575 1484.91 213.052 1483.12 212.006C1481.33 210.947 1479.92 209.39 1478.87 207.334C1477.84 205.266 1477.32 202.723 1477.32 199.707C1477.32 196.691 1477.83 194.106 1478.85 191.952C1479.88 189.797 1481.3 188.148 1483.1 187.003C1484.9 185.846 1486.93 185.267 1489.21 185.267C1490.97 185.267 1492.39 185.562 1493.48 186.153C1494.56 186.732 1495.4 187.409 1496.01 188.185C1496.62 188.96 1497.1 189.643 1497.43 190.234H1497.83V185.636H1503.24V214.628C1503.24 217.065 1502.68 219.066 1501.55 220.629C1500.41 222.193 1498.88 223.35 1496.95 224.101C1495.03 224.852 1492.86 225.227 1490.45 225.227ZM1490.39 208.996C1491.98 208.996 1493.32 208.626 1494.42 207.888C1495.53 207.137 1496.36 206.066 1496.93 204.675C1497.51 203.271 1497.8 201.591 1497.8 199.634C1497.8 197.725 1497.51 196.045 1496.95 194.592C1496.38 193.14 1495.55 192.007 1494.45 191.195C1493.36 190.37 1492 189.957 1490.39 189.957C1488.73 189.957 1487.35 190.388 1486.24 191.25C1485.13 192.099 1484.29 193.257 1483.73 194.722C1483.17 196.187 1482.89 197.824 1482.89 199.634C1482.89 201.492 1483.18 203.124 1483.74 204.527C1484.31 205.93 1485.15 207.026 1486.26 207.814C1487.38 208.602 1488.75 208.996 1490.39 208.996ZM1522.6 214.572C1519.94 214.572 1517.62 213.963 1515.63 212.744C1513.65 211.526 1512.11 209.821 1511.02 207.629C1509.92 205.438 1509.38 202.877 1509.38 199.947C1509.38 197.005 1509.92 194.432 1511.02 192.229C1512.11 190.025 1513.65 188.314 1515.63 187.095C1517.62 185.876 1519.94 185.267 1522.6 185.267C1525.26 185.267 1527.58 185.876 1529.56 187.095C1531.54 188.314 1533.08 190.025 1534.17 192.229C1535.27 194.432 1535.82 197.005 1535.82 199.947C1535.82 202.877 1535.27 205.438 1534.17 207.629C1533.08 209.821 1531.54 211.526 1529.56 212.744C1527.58 213.963 1525.26 214.572 1522.6 214.572ZM1522.62 209.938C1524.34 209.938 1525.77 209.482 1526.9 208.571C1528.03 207.66 1528.87 206.447 1529.41 204.933C1529.96 203.419 1530.24 201.751 1530.24 199.929C1530.24 198.119 1529.96 196.457 1529.41 194.943C1528.87 193.417 1528.03 192.192 1526.9 191.268C1525.77 190.345 1524.34 189.884 1522.62 189.884C1520.88 189.884 1519.44 190.345 1518.29 191.268C1517.16 192.192 1516.32 193.417 1515.76 194.943C1515.22 196.457 1514.95 198.119 1514.95 199.929C1514.95 201.751 1515.22 203.419 1515.76 204.933C1516.32 206.447 1517.16 207.66 1518.29 208.571C1519.44 209.482 1520.88 209.938 1522.62 209.938Z" fill="#969696"/>
<path d="M846 0L846 265" stroke="#D8D8D8" stroke-width="3"/>
<path d="M133.346 42.2275C124.106 44.2492 117.006 47.2818 108.78 52.8977C94.6944 62.4447 88.2713 77.1583 89.7362 96.7015C90.7504 109.056 94.131 117.368 101.118 124.332C111.372 134.553 120.5 138.708 149.686 146.346C159.602 148.929 170.082 152.411 175.04 154.882C182.252 158.476 183.83 159.936 186.084 164.204C191.605 174.762 187.21 186.219 175.491 192.284C168.279 195.99 151.151 196.777 140.107 193.969C130.529 191.61 116.443 184.646 107.991 178.244C104.273 175.436 101.005 173.19 100.667 173.302C100.329 173.302 96.1593 178.132 91.3138 184.085C81.2847 196.552 81.172 195.429 93.4549 204.19C110.02 215.983 129.064 222.385 150.813 223.396C180.787 224.856 203.775 214.41 214.255 194.755C220.904 182.4 221.467 163.081 215.608 150.052C209.184 135.451 192.845 125.567 161.518 117.48C127.599 108.607 120.049 103.104 121.176 87.8285C121.965 76.9336 128.388 71.3178 142.924 68.6221C157.236 66.0388 182.59 72.5533 196.676 82.4372C197.69 83.2234 198.817 83.5604 199.043 83.3358C199.381 82.9988 202.874 78.0568 207.043 72.2163L214.481 61.6584L208.508 57.3904C201.747 52.4484 189.126 46.8325 177.857 43.7999C167.378 40.992 143.488 40.0935 133.346 42.2275Z" fill="url(#paint0_linear_75_169)"/>
<path d="M279.163 42.2277C268.007 44.3617 263.838 45.8219 252.682 51.4377C230.933 62.5572 213.128 84.7961 207.269 108.158C204.339 120.176 204.452 120.85 213.128 128.825C225.975 140.618 230.595 152.299 230.482 172.067C230.482 179.255 229.806 185.994 228.792 189.251L227.102 194.53L234.539 201.269C243.441 209.244 257.752 216.994 270.373 220.588C277.923 222.722 282.093 223.059 297.306 223.171C308.687 223.171 317.589 222.61 321.533 221.711C332.577 219.016 345.761 211.715 354.438 203.628L362.439 196.103L355.903 184.871C352.297 178.806 349.254 173.639 349.142 173.415C348.916 173.19 345.31 175.661 341.141 178.918C326.379 190.038 313.645 194.53 296.855 194.53C280.065 194.53 266.091 188.69 253.921 176.56C241.413 164.092 235.891 150.39 235.891 131.633C235.891 113.437 241.075 100.521 253.358 88.2779C265.866 75.8107 280.741 69.8578 299.559 69.8578C316.124 69.8578 329.309 74.6875 342.718 85.5823L349.93 91.3105L358.495 82.1004C363.34 77.0462 367.51 72.2165 368.073 71.4303C368.637 70.4194 366.157 67.6115 360.185 62.5572C350.607 54.358 335.507 46.2711 324.351 43.3509C314.997 40.8799 289.418 40.3183 279.163 42.2277Z" fill="url(#paint1_linear_75_169)"/>
<path d="M428.248 42.4523C408.64 46.8327 393.766 58.0644 387.906 73.0027C385.878 78.1693 385.314 81.7634 385.314 91.1981C385.202 105.575 387.343 113.437 393.54 121.187C402.105 132.082 415.289 138.596 442.785 145.672C461.829 150.614 467.012 152.411 474.112 156.679C485.944 163.98 487.183 179.367 476.703 188.578C465.322 198.574 438.728 198.125 419.571 187.567C405.823 180.041 392.526 165.215 385.652 150.053C381.032 139.719 377.426 135.227 371.792 132.643C367.51 130.734 363.678 130.509 320.745 130.509H274.205V142.303V154.096H311.955C342.042 154.096 350.607 154.433 353.649 155.668C356.917 157.016 358.269 159.038 363.115 169.034C373.482 190.038 386.328 203.965 403.908 213.063C416.416 219.465 428.924 222.61 446.053 223.396C469.942 224.519 486.169 219.689 499.466 207.447C511.862 195.99 516.933 180.94 514.341 163.531C512.989 154.658 509.383 145.335 505.551 141.179C496.536 131.183 481.549 123.995 455.969 117.144C429.037 109.955 421.712 106.361 417.881 98.3865C415.289 92.7706 415.965 82.7743 419.346 78.057C424.755 70.5317 439.404 66.6006 454.391 68.6223C466.111 70.1947 479.971 74.7998 487.183 79.5171C490.451 81.6511 493.381 83.3359 493.719 83.3359C495.184 83.2236 509.946 61.6586 508.932 60.9847C508.368 60.6477 505.551 58.626 502.509 56.6043C495.297 51.55 484.817 46.8327 474.112 44.0247C462.167 40.7675 439.066 39.9813 428.248 42.4523Z" fill="url(#paint2_linear_75_169)"/>
<path d="M993.395 38.4421C993.395 38.7737 996.067 40.4316 999.296 42.3105C1007.54 46.9526 1016.89 57.0105 1020.9 65.6316C1026.69 77.7895 1028.36 86.4105 1028.25 103.763C1028.13 128.853 1022.79 143.774 1009.65 156.042C993.395 170.963 973.575 176.158 931.933 176.158H911V201.579V227H972.796H1034.59V132.5V38H1013.99C1002.64 38 993.395 38.2211 993.395 38.4421Z" fill="url(#paint3_linear_75_169)"/>
<path d="M1159.19 42.0895C1179.67 54.1368 1189.25 76.2421 1187.91 108.184C1186.91 131.063 1182.12 143.663 1169.87 155.711C1154.73 170.632 1133.8 176.158 1092.27 176.158H1071.34V201.579V227H1185.46H1299.59V212.079V197.158H1253.94H1208.29V171.737V146.316H1244.48H1280.66V131.947V117.579H1244.48H1208.29V92.7105V67.8421H1251.71H1295.14V52.9211V38H1223.65H1152.06L1159.19 42.0895Z" fill="url(#paint4_linear_75_169)"/>
<path d="M911.779 65.3002C911.334 65.6318 911 82.8739 911 103.432V141.011L938.057 140.569C969.344 140.016 973.687 139.132 980.924 131.837C987.048 125.869 990.166 117.358 990.945 105.09C992.392 79.7792 982.483 68.7265 955.204 65.7423C943.401 64.416 912.893 64.0844 911.779 65.3002Z" fill="url(#paint5_linear_75_169)"/>
<path d="M1071.34 102.769V141.011L1098.39 140.569C1123.22 140.237 1125.78 139.905 1131.68 137.695C1135.47 136.148 1139.48 133.495 1141.82 130.953C1149.83 122.111 1153.51 103.763 1149.94 90.1686C1144.82 70.0529 1131.46 64.5265 1088.37 64.5265H1071.34V102.769Z" fill="url(#paint6_linear_75_169)"/>
<defs>
<linearGradient id="paint0_linear_75_169" x1="219.65" y1="132.289" x2="84" y2="132.289" gradientUnits="userSpaceOnUse">
<stop stop-color="#79A8AA"/>
<stop offset="1" stop-color="#7AB7AB"/>
</linearGradient>
<linearGradient id="paint1_linear_75_169" x1="368.151" y1="132.129" x2="205.545" y2="132.129" gradientUnits="userSpaceOnUse">
<stop stop-color="#7897AA"/>
<stop offset="1" stop-color="#79A6AA"/>
</linearGradient>
<linearGradient id="paint2_linear_75_169" x1="274.205" y1="132.277" x2="515" y2="132.277" gradientUnits="userSpaceOnUse">
<stop stop-color="#789FAA"/>
<stop offset="1" stop-color="#7680AA"/>
</linearGradient>
<linearGradient id="paint3_linear_75_169" x1="1034.59" y1="132.5" x2="911" y2="132.5" gradientUnits="userSpaceOnUse">
<stop stop-color="#7899AA"/>
<stop offset="1" stop-color="#7790AA"/>
</linearGradient>
<linearGradient id="paint4_linear_75_169" x1="1299.59" y1="132.5" x2="1071.34" y2="132.5" gradientUnits="userSpaceOnUse">
<stop stop-color="#79B0AB"/>
<stop offset="1" stop-color="#789DAB"/>
</linearGradient>
<linearGradient id="paint5_linear_75_169" x1="911" y1="102.778" x2="991.082" y2="102.778" gradientUnits="userSpaceOnUse">
<stop stop-color="#778FAA"/>
<stop offset="1" stop-color="#7895AA"/>
</linearGradient>
<linearGradient id="paint6_linear_75_169" x1="1151.31" y1="102.769" x2="1071.34" y2="102.769" gradientUnits="userSpaceOnUse">
<stop stop-color="#789DAB"/>
<stop offset="1" stop-color="#79A3AB"/>
</linearGradient>
</defs>
</svg>
